ply
format ascii 1.0
element vertex 287
property float x
property float y
property float z
property uchar red
property uchar green
property uchar blue
end_header
-2.18849 -1.72344 9.53077 128 202 237
0.0778877 0.122749 -0.423772 32 78 91
-0.148685 -0.27286 0.847029 164 197 248
-0.244752 -0.300132 1.67945 62 162 221
-0.18815 -0.311665 1.2601 122 132 141
0.00502989 0.00988939 -0.0376285 60 62 74
0.00389694 0.0080323 -0.0309081 61 68 87
-0.250754 -0.443007 2.61381 50 147 198
-0.127546 -0.23816 2.25093 2 103 149
-0.100291 -0.248259 0.544337 183 213 251
0.000710939 -0.138745 0.4154 108 199 246
-0.0425025 0.222287 -0.668174 52 70 72
-0.000342137 0.000201316 -0.00246922 67 81 84
-0.266421 -0.494875 1.646 119 125 147
-0.351566 -0.503983 1.52253 190 220 254
-0.483456 -0.0943281 1.40119 209 203 189
-0.243792 -0.531277 1.6011 106 109 114
-1.17837 0.482849 2.35144 165 157 144
-0.29487 -0.179124 1.19043 206 194 178
-10.3164 11.4835 40.883 27 18 11
-0.0342761 -0.452264 0.756245 143 136 120
-0.755549 -0.0457678 1.7097 154 149 130
-0.755549 -0.0457678 1.7097 144 134 109
-0.755549 -0.0457678 1.7097 158 151 132
-0.755549 -0.0457678 1.7097 142 132 107
-0.755549 -0.0457678 1.7097 145 135 110
-0.755549 -0.0457678 1.7097 154 143 123
-0.755549 -0.0457678 1.7097 149 141 118
-0.755549 -0.0457678 1.7097 142 134 115
-0.755549 -0.0457678 1.7097 151 142 125
-0.755549 -0.0457678 1.7097 154 145 128
-0.755549 -0.0457678 1.7097 154 145 128
-0.755549 -0.0457678 1.7097 46 50 59
-0.755549 -0.0457678 1.7097 159 145 119
-0.755549 -0.0457678 1.7097 158 151 135
-0.755549 -0.0457678 1.7097 158 151 135
-1.12639 0.217695 2.42752 201 191 164
-1.49012 0.949264 2.65314 0 97 156
-0.755549 -0.0457678 1.7097 157 155 140
-0.755549 -0.0457678 1.7097 129 126 109
-0.755549 -0.0457678 1.7097 133 134 126
-0.755549 -0.0457678 1.7097 152 139 120
-0.755549 -0.0457678 1.7097 150 139 119
-0.755549 -0.0457678 1.7097 163 161 148
-0.755549 -0.0457678 1.7097 146 146 134
-0.755549 -0.0457678 1.7097 159 156 147
-0.755549 -0.0457678 1.7097 159 156 147
-0.755549 -0.0457678 1.7097 150 151 143
-0.755549 -0.0457678 1.7097 155 140 119
-1.44264 0.432307 2.25708 61 77 92
-1.44362 0.420272 2.22834 103 101 102
-0.755549 -0.0457678 1.7097 157 148 133
-1.46672 0.504992 2.60541 68 64 53
-0.755549 -0.0457678 1.7097 147 137 125
-0.755549 -0.0457678 1.7097 141 131 119
-0.755549 -0.0457678 1.7097 48 36 24
-0.755549 -0.0457678 1.7097 139 123 108
-0.755549 -0.0457678 1.7097 141 128 112
-0.755549 -0.0457678 1.7097 136 123 107
-0.755549 -0.0457678 1.7097 147 135 119
-0.755549 -0.0457678 1.7097 141 129 115
-0.755549 -0.0457678 1.7097 140 131 114
-0.755549 -0.0457678 1.7097 140 133 115
-0.755549 -0.0457678 1.7097 80 92 116
-0.755549 -0.0457678 1.7097 139 127 113
-0.755549 -0.0457678 1.7097 134 120 107
-1.28202 0.0533242 2.2993 189 180 165
-1.28081 0.0516039 2.29723 187 178 163
-1.19507 -0.220243 2.20907 153 161 180
-1.3676 0.168841 2.39967 141 124 98
-1.21465 -0.0741104 2.09832 100 93 87
-1.20573 -0.722291 1.84964 88 94 108
-1.19876 -0.375571 1.91465 0 47 61
-1.26023 -0.610996 1.81783 0 71 93
-1.27482 -0.937772 1.74312 162 182 207
-1.26235 -0.966426 1.67096 130 141 159
-1.37005 -1.09312 1.65552 188 211 245
-0.368508 -6.07389 -3.30585 144 137 119
-0.831013 -4.38913 -2.94228 157 155 142
-1.85741 1.44736 5.71074 157 154 139
-1.05388 -5.7251 -3.16193 135 124 102
-1.08988 -5.5929 -3.13195 141 142 128
-1.12174 -5.5012 -3.10325 142 136 122
-0.950065 -6.9019 -0.5424 30 114 161
-1.79984 -0.256333 2.06468 123 109 96
-1.77056 0.805549 2.60095 182 201 231
-1.78833 -0.791669 1.86199 30 123 182
-1.23185 -5.60733 0.159401 145 179 227
-1.43278 -5.12 -0.01856 199 221 255
-1.31198 -6.56502 -0.458813 40 93 135
-1.3124 -6.44103 -0.277747 128 154 191
-1.34783 -6.49749 -0.366624 177 211 249
-1.37784 -6.19282 -0.582942 42 68 95
-1.66633 -3.7703 -2.74282 149 140 125
-1.42144 -6.3877 -0.547356 99 130 176
-1.70211 -3.79115 -2.74818 146 139 123
-1.71241 -3.58817 -2.70253 159 156 141
-1.37048 -5.68032 0.347832 132 164 213
-1.37095 -5.6776 0.349051 138 170 219
-1.73297 -3.70522 -2.72463 156 144 128
-1.48956 -5.91273 -0.556322 37 84 128
-1.82602 -5.09295 -2.92252 130 152 165
-1.84352 -5.09272 -2.90643 198 235 253
-1.82147 -3.64828 -2.70197 142 133 116
-1.86011 -4.84699 -2.91317 157 150 140
-1.57264 -5.12003 -0.508442 125 190 232
-1.82968 -3.69018 -2.70402 158 146 130
-1.88969 -5.05997 -2.89837 117 118 120
-1.90974 -5.06377 -2.92589 57 48 41
-1.78277 -4.02511 -0.574532 27 68 72
-1.93084 -5.06025 -2.9158 57 45 33
-1.63978 -6.2249 -0.438988 167 200 251
-1.85038 -5.0753 -2.17251 164 177 186
-1.64596 -5.16188 -0.511729 87 154 197
-1.81712 -5.09561 -1.8199 52 65 71
-1.94418 -3.92123 -2.75648 160 148 136
-1.66309 -5.17225 -0.513202 83 154 198
-1.95307 -3.85732 -2.69819 156 150 136
-1.81029 -5.10304 -1.54807 95 116 119
-1.81493 -5.10857 -1.52917 25 44 50
-1.69857 -5.8091 -0.516397 70 109 152
-1.81599 -5.09219 -1.46906 114 138 142
-1.87855 -5.09852 -1.77402 51 61 62
-1.95989 -4.62332 -2.39483 97 97 97
-1.71758 -5.25549 -0.509953 76 146 195
-1.58199 -5.74836 0.605023 136 169 214
-1.5958 -5.74582 0.600554 165 193 240
-1.5958 -5.74582 0.600554 165 193 240
-1.97351 -4.42557 -2.16973 96 98 95
-1.79853 -5.91019 -0.542206 155 187 228
-2.12395 -4.95028 -2.88407 172 168 156
-1.68212 -5.75804 0.70104 142 175 228
-2.19308 -4.89989 -2.86522 160 153 143
-2.23376 -4.91629 -2.86041 174 171 162
-1.88064 -6.58668 -0.0182609 141 170 212
-2.25013 -4.97939 -2.87436 78 62 46
-2.04071 -2.34265 -2.46918 151 138 119
-2.26692 -5.01754 -2.87698 88 69 54
-1.94641 -5.77021 -0.459335 148 171 202
-2.30549 -4.96042 -2.86332 96 78 64
-2.30549 -4.96042 -2.86332 96 78 64
-1.96272 -5.77351 -0.464377 82 118 152
-1.96542 -5.77339 -0.452682 154 171 201
-2.36222 -5.24096 -2.88979 47 39 28
-2.37577 -4.75056 -2.82248 142 136 124
-1.86766 -5.93878 0.970315 182 216 254
-2.52876 -4.76417 -2.86178 176 173 164
-2.32209 -5.28865 -1.15317 21 59 60
-2.21382 -5.43922 -0.433448 19 88 129
-2.23695 -5.60391 -0.421027 39 107 146
-2.33863 -5.84258 -0.409761 66 98 121
-2.3555 -5.57761 -0.405115 29 92 123
-2.35874 -5.38186 -0.472971 17 56 61
-2.5761 -3.46506 -2.55474 156 150 134
-2.5883 -3.47141 -2.5548 198 185 169
-2.40926 -5.57425 -0.396388 0 59 87
-2.40926 -5.57425 -0.396388 0 59 87
-2.6134 -3.45774 -2.55155 164 147 131
-2.6134 -3.45774 -2.55155 164 147 131
-2.48923 -6.6684 0.00575083 82 85 90
-2.24741 -6.41149 0.967437 83 90 98
-2.39853 -6.33148 0.410319 166 196 246
-1.83378 -3.28226 1.09063 158 174 200
-2.17745 -3.83626 1.06922 95 91 90
-2.59832 -6.6168 -0.148304 154 174 209
-2.11794 -4.87685 1.10858 168 192 238
-2.79219 -5.49448 -0.581844 6 45 50
-7.64296 -24.7875 -3.74602 98 102 111
-7.58939 -24.6763 -3.46248 55 59 71
-7.58939 -24.6763 -3.46248 55 59 71
-3.29881 -5.58827 -1.5773 0 24 24
-2.95111 -5.64556 -0.320268 0 40 52
-9.45176 -28.6722 -5.60785 41 41 49
-2.99036 -5.61088 -0.355115 15 58 65
-8.19568 -24.5568 -4.04176 97 98 103
-9.82126 -28.7473 -6.26188 58 53 59
-2.28235 -2.65094 -0.073874 42 30 16
-3.85456 -5.78338 -2.72624 129 118 112
-3.21301 -5.62248 -0.62606 16 54 55
-3.29727 -5.64164 -0.626688 14 50 50
-3.26445 -5.65473 -0.511704 11 44 51
-3.30099 -5.67856 -0.402782 13 50 59
-3.31829 -5.69863 -0.335596 12 50 59
-3.34951 -5.70839 -0.324378 16 52 64
-2.22525 -0.677437 2.07819 131 123 104
-41.8213 146.944 65.4223 72 86 99
-5.72415 15.6998 8.02785 164 199 239
-5.69931 15.5807 7.9889 178 211 246
-2.93462 2.81975 3.92736 103 180 232
-4.53502 18.6252 8.49978 142 176 224
-1.48725 -8.66312 -6.87735 157 175 185
-2.56787 2.34845 5.16794 105 114 121
-2.87933 5.45057 4.90128 66 87 130
-3.37051 14.4779 14.3635 103 122 126
-3.37343 7.32 5.68015 164 196 245
-2.2072 -1.59397 1.6032 15 50 52
-2.52488 1.30619 3.04012 159 179 216
-1.86526 -22.2926 -1.22062 189 202 219
-1.91392 -22.41 -1.20751 97 98 100
-2.15227 -2.90173 1.59018 104 104 104
-3.00194 79.0122 26.1529 112 105 99
-2.27122 -2.47614 1.64768 111 120 137
-2.55169 -4.04288 0.578999 101 103 115
-2.20146 -0.680234 1.98681 179 166 150
-2.20139 -0.680354 1.98677 184 171 155
-2.7226 -0.201746 3.05 142 131 109
-2.64052 -0.248658 3.04573 145 138 119
-2.61691 -0.0567655 2.9098 88 94 94
-2.53118 -0.314162 2.7672 7 80 113
-2.53118 -0.314162 2.7672 29 95 117
9.37885 -59.086 -16.8657 159 194 250
-2.68128 -0.148073 3.06478 142 127 106
-2.68128 -0.148073 3.06478 142 127 106
-2.97491 2.82492 4.00945 156 193 246
-2.69235 -0.203883 3.06728 147 138 121
-2.5349 -0.293708 2.77422 172 206 254
-2.40226 -0.390691 2.66064 31 74 106
-2.70379 -0.096996 3.27781 185 171 144
-2.4112 -0.200647 2.88833 108 128 139
-2.2233 -3.95756 1.9747 141 164 208
-2.53118 -0.314162 2.7672 46 129 173
-2.46183 0.804464 3.07339 175 204 248
-2.8583 5.30384 4.42465 127 157 209
-3.55449 8.2767 7.01209 97 139 187
-2.53118 -0.314162 2.7672 50 154 215
-2.54816 0.258619 3.05163 7 83 107
-2.3313 1.18003 3.45984 53 80 89
-2.3313 1.18003 3.45984 53 80 89
-3.03547 -0.358884 2.89968 153 143 133
-2.53166 2.72964 3.83743 179 202 243
-2.24361 -1.10234 2.15187 146 176 226
-2.61284 -2.8087 1.41726 114 185 227
-2.62277 -2.854 1.40329 117 190 231
-2.64542 -2.94571 1.37573 108 185 231
-2.25152 0.966217 2.92388 164 169 165
-2.37246 -1.29156 1.98723 150 182 223
-1.65577 -9.11033 -2.2316 195 228 255
-3.29091 -1.43066 2.59281 177 180 171
-3.28675 -1.45997 2.59022 63 54 37
-2.39149 1.15057 3.01459 50 106 141
-3.31129 -1.55915 2.57845 115 115 107
-2.64049 -23.3525 -8.55386 186 216 252
-0.606843 -19.1951 -7.59117 192 221 255
-3.33922 -1.61965 2.58254 76 60 44
2.21672 -30.1748 -13.2548 111 109 112
2.30905 -30.8554 -13.5999 108 108 116
-0.065562 -15.5488 -5.28545 143 172 212
-0.639001 -15.8228 -5.37922 169 194 235
-3.13947 -1.2734 2.72456 88 70 50
-2.77666 -0.0807658 3.07211 162 143 128
-5.90568 29.9228 17.5896 104 104 114
-3.22283 6.60892 5.66282 103 105 118
-2.36987 5.3099 4.62419 67 130 173
-4.08169 -4.00594 2.437 90 90 90
-27.2047 -546.41 -173.295 156 168 194
-4.39211 -4.9927 2.37978 95 93 94
-2.50423 2.87225 3.61079 148 159 187
-2.39523 4.60913 4.3315 150 157 183
-4.24139 9.93609 7.14606 94 100 116
-1.7633 6.61692 4.61767 15 55 57
-1.17369 -39.9333 -8.35902 65 98 117
-2.82585 3.47241 4.02748 100 101 105
-2.83319 3.74666 4.10011 176 204 252
-6.62622 17.291 9.63248 99 101 113
-2.8726 5.40958 4.58383 111 109 110
-2.87069 5.38131 4.57009 118 109 104
-6.64222 17.3584 9.55593 115 108 102
-2.37695 1.48746 3.0583 116 130 143
1.06291 12.3306 3.38086 88 88 90
-2.53891 6.80862 4.39014 100 101 103
-2.35272 0.765905 2.94411 144 134 122
-2.8257 -0.272478 3.24923 139 132 116
-2.34049 1.52256 2.75628 93 80 63
-2.34049 1.52256 2.75628 101 84 66
-2.35524 1.07807 2.53113 85 85 93
-2.51202 0.806125 2.53112 53 142 198
-2.51202 0.806125 2.53112 53 142 198
-2.34049 1.52256 2.75628 95 90 97
-2.32167 1.17781 2.58381 186 217 255
-2.36837 1.09727 2.59689 32 77 96
-2.52142 0.772576 2.74309 36 28 17
-2.32744 1.47336 2.73454 91 89 92
-2.30346 1.16256 2.60697 152 159 177
-2.34699 1.04274 2.72929 19 49 51
-2.34699 1.04274 2.72929 19 49 51
-2.49239 0.782808 2.89113 155 138 122
-2.35115 1.27328 2.87628 116 110 94
